<?xml version="1.0" standalone="no"?>
<!DOCTYPE svg PUBLIC "-//W3C//DTD SVG 20010904//EN"
 "http://www.w3.org/TR/2001/REC-SVG-20010904/DTD/svg10.dtd">
<svg version="1.0" xmlns="http://www.w3.org/2000/svg"
 width="500.000000pt" height="500.000000pt" viewBox="0 0 500.000000 500.000000"
 preserveAspectRatio="xMidYMid meet">

<g transform="translate(0.000000,500.000000) scale(0.100000,-0.100000)"
fill="#000000" stroke="none">
<path d="M0 2500 l0 -2500 2500 0 2500 0 0 2500 0 2500 -2500 0 -2500 0 0
-2500z m2265 1468 l60 -108 90 0 90 0 63 110 64 110 326 0 c425 0 547 -14 762
-87 227 -76 462 -224 630 -397 l44 -46 -883 2 -884 3 -61 108 -61 107 -90 -2
-90 -3 -60 -107 -60 -108 -156 0 -155 0 -72 124 c-39 68 -72 128 -74 134 -2 6
31 70 72 142 l75 130 155 -3 155 -2 60 -107z m-699 -653 l59 -105 92 0 91 0
59 103 59 102 1286 3 1286 2 52 -82 c29 -45 71 -119 92 -166 40 -84 98 -244
98 -269 0 -11 -252 -13 -1404 -13 l-1404 0 -63 110 -64 111 -89 -3 -90 -3 -61
-105 -61 -105 -155 -3 -154 -2 -75 132 c-41 72 -74 136 -72 142 2 6 35 66 74
134 l70 122 157 0 157 0 60 -105z m-826 -676 c41 -72 74 -136 72 -143 -2 -6
-35 -66 -74 -133 l-70 -123 -158 0 -158 0 -71 125 c-39 69 -72 129 -73 133 -2
5 31 68 72 140 l75 132 155 0 155 0 75 -131z m1576 23 l62 -107 89 -3 90 -3
63 111 63 110 1043 0 c1012 0 1043 -1 1049 -19 21 -66 21 -442 0 -499 -3 -10
-219 -12 -1051 -10 l-1046 3 -58 100 -58 100 -93 3 -94 2 -58 -105 -59 -105
-376 0 -377 0 -70 122 c-38 67 -71 128 -73 135 -3 12 111 221 141 261 7 9 95
12 381 12 l371 -1 61 -107z m-830 -657 l59 -105 91 0 91 0 60 103 59 102 1447
3 c1191 2 1447 0 1447 -11 0 -25 -58 -185 -98 -269 -21 -47 -63 -121 -92 -166
l-52 -82 -1324 0 -1323 0 -64 108 -63 107 -88 0 -88 0 -62 -107 -61 -107 -155
-1 -156 0 -77 133 -77 134 76 131 76 132 157 0 157 0 60 -105z m-252 -657 l61
-107 90 0 90 -1 60 108 60 107 1398 3 c1391 2 1398 2 1387 -18 -17 -32 -196
-186 -286 -246 -162 -108 -358 -192 -552 -236 -96 -22 -110 -22 -1022 -25
l-926 -4 -59 106 -60 105 -90 0 -90 0 -59 -105 -60 -105 -400 0 -401 0 -70
123 c-38 67 -71 128 -73 134 -2 7 12 39 31 70 19 32 53 91 76 131 l42 72 396
-2 395 -3 62 -107z"/>
</g>
</svg>
